<?xml version="1.0" encoding="utf-8"?>
<!-- Generator: Adobe Illustrator 28.1.0, SVG Export Plug-In . SVG Version: 6.00 Build 0)  -->
<svg version="1.1" id="Capa_1" xmlns="http://www.w3.org/2000/svg" xmlns:xlink="http://www.w3.org/1999/xlink" x="0px" y="0px"
	 viewBox="0 0 392.35 370.52" style="enable-background:new 0 0 392.35 370.52;" xml:space="preserve">
<style type="text/css">
	.st0{fill:#E0B367;}
</style>
<g>
	<path class="st0" d="M58.23,72.81c1.73,1.61,2.6,2.42,3.69,3.43c-0.9,1.27-1.64,2.47-2.52,3.55
		c-16.74,20.56-27.6,43.93-33.27,69.76c-2.97,13.52-4.2,27.25-3.53,41.05c1.3,26.7,8.06,51.97,21.17,75.36
		C55.1,286.19,70,303.42,88.24,317.82c23.97,18.92,51.01,30.79,81.06,35.79c16.74,2.78,33.55,2.83,50.38,0.56
		c38.1-5.13,70.79-21.47,98.52-47.82c25.04-23.78,40.74-52.95,47.88-86.61c8.44-39.81,2.88-77.73-16.44-113.61
		c-8.91-16.55-20.19-31.32-33.9-44.11c-23.81-22.21-51.62-36.98-83.53-43.86c-16.17-3.48-32.53-4.51-48.97-3.24
		c-19.68,1.52-38.85,5.6-56.82,14c-10.36,4.84-20.4,10.37-31.03,15.82c-0.4-0.46-1.23-1.41-2.4-2.77c2.14-1.51,4.01-2.99,6.02-4.24
		c23.28-14.45,48.48-23.58,75.69-26.91c12.71-1.55,25.47-1.62,38.26-0.46c24.62,2.24,47.64,9.54,69.33,21.24
		c16.82,9.07,31.78,20.57,44.84,34.55c14.36,15.37,25.75,32.66,34.05,51.99c10.09,23.47,14.6,48.01,13.56,73.48
		c-1.52,37.2-13.45,70.89-36.26,100.31c-18.86,24.32-42.95,42.24-71.17,54.55c-16.28,7.1-33.28,11.6-50.93,13.42
		c-24.73,2.54-49.14,0.6-72.87-6.99c-35.13-11.23-64.48-31.08-87.78-59.8c-16.69-20.57-27.89-43.85-33.83-69.55
		c-5.16-22.34-5.81-44.91-1.91-67.61c4.38-25.5,13.75-48.9,28.64-70.06c2.47-3.51,5.21-6.84,7.79-10.27
		C57.02,74.84,57.5,73.96,58.23,72.81z"/>
	<path class="st0" d="M285.36,304.94c0.69,1.16,1.19,1.98,1.81,3.01c-0.84,0.69-1.53,1.37-2.33,1.9
		c-21.53,14.37-44.98,23.58-70.83,26.41c-25.68,2.82-50.7-0.12-74.62-9.8c-40.98-16.57-70.7-44.99-87.56-86.09
		c-14.22-34.66-15.04-70.06-3.02-105.38c10.29-30.25,28.85-54.82,54.83-73.58c23.3-16.83,49.26-26.85,77.9-29.41
		c33.09-2.96,64.31,3.45,93.16,20.12c31.35,18.11,53.83,44.05,67.19,77.76c5.23,13.19,8.23,26.92,9.43,41.06
		c2.95,35.02-5.73,67.05-24.65,96.46c-2.49,3.86-5.25,7.55-8.04,11.53c-1.26-0.99-2.09-1.64-3.13-2.45c1.14-1.63,2.1-3.09,3.14-4.48
		c10.77-14.48,18.63-30.43,23.61-47.74c6.7-23.3,7.65-46.9,2.54-70.62c-6.97-32.33-23.19-59.25-48.05-80.98
		c-21.35-18.65-46.06-30.47-73.98-35.12C186.47,31.5,152,37.17,119.99,55.45c-26.84,15.32-47.26,37-60.95,64.77
		c-8.28,16.79-12.91,34.62-14.16,53.32c-1.96,29.29,4.49,56.69,18.64,82.31c8.73,15.8,20.29,29.27,34.01,40.99
		c19.33,16.52,41.32,27.67,66.15,33.01c32.32,6.94,63.75,4.12,94.07-9.37c8.78-3.91,17.17-8.52,25.01-14.1
		C283.46,305.88,284.27,305.54,285.36,304.94z"/>
	<path class="st0" d="M248.82,184.37c-0.13,29.56-22.99,52.25-52.76,52.27c-27.03,0.01-53.55-21.86-52.85-52.82
		c0.66-29.01,23.7-51.26,53.9-51.05C225.98,132.97,248.95,155.89,248.82,184.37z M196.33,140.14c-25.7,0.06-45.79,19.69-45.73,44.69
		c0.06,24.58,20.78,44.73,46,44.73c24.86,0,44.98-20.52,44.85-45.74C241.32,159.6,221.17,140.08,196.33,140.14z"/>
	<path class="st0" d="M75.28,42.09c8.57,0.02,15.27,6.51,15.31,14.85c0.04,8.53-6.76,15.28-15.37,15.24
		c-8.39-0.04-15.36-7.11-15.24-15.46C60.1,48.66,67,42.07,75.28,42.09z"/>
	<path class="st0" d="M317.45,294.68c-0.01,7.17-6.07,13.06-13.45,13.08c-7.53,0.03-13.57-5.96-13.49-13.37
		c0.07-7.1,6.26-13.17,13.44-13.18C311.31,281.21,317.46,287.34,317.45,294.68z"/>
	<path class="st0" d="M192.3,97.91c0-6.79,0.03-13.58-0.02-20.37c-0.02-2.73,0.46-5.25,3.71-5.36c3.18-0.1,4.24,2.4,4.25,5.06
		c0.06,13.91,0.01,27.83-0.09,41.74c-0.02,2.65-0.83,5.28-4.06,5.18c-3.17-0.1-3.81-2.65-3.8-5.37c0.01-6.96,0-13.91,0-20.87
		C192.31,97.91,192.3,97.91,192.3,97.91z"/>
	<path class="st0" d="M106.19,188.08c-7.47,0-14.94,0.02-22.41-0.01c-1.32-0.01-2.87,0.19-3.88-0.42c-1.11-0.67-2.39-2.17-2.38-3.3
		c0.01-1.13,1.32-2.54,2.42-3.29c0.83-0.57,2.24-0.37,3.39-0.37c14.77-0.04,29.54-0.05,44.31-0.07c0.5,0,1-0.02,1.49,0.01
		c3.36,0.2,5.54,1.8,5.19,4.03c-0.46,2.93-2.74,3.41-5.24,3.41C121.46,188.08,113.82,188.08,106.19,188.08z"/>
	<path class="st0" d="M285.9,188.09c-7.29,0-14.59,0-21.88,0c-0.99,0-2.22,0.32-2.93-0.15c-1.37-0.9-3.36-2.24-3.37-3.42
		c-0.01-1.24,1.85-2.68,3.17-3.67c0.65-0.49,1.93-0.18,2.92-0.18c14.59-0.01,29.17-0.01,43.76-0.01c0.83,0,1.66,0.01,2.49,0.03
		c2.39,0.08,4.4,0.86,4.44,3.61c0.04,3.06-2.12,3.8-4.72,3.8c-7.96,0-15.91,0-23.87,0C285.9,188.09,285.9,188.09,285.9,188.09z"/>
	<path class="st0" d="M192.36,271.21c0-6.8,0-13.59,0-20.39c0-2.65,0.31-5.36,3.64-5.42c3.15-0.06,4.11,2.37,4.1,5.14
		c-0.05,13.76-0.13,27.51-0.22,41.27c-0.02,2.41-0.9,4.42-3.58,4.48c-2.99,0.07-3.87-2.05-3.87-4.68c0-6.8,0-13.59,0-20.39
		C192.41,271.21,192.39,271.21,192.36,271.21z"/>
	<path class="st0" d="M274.56,108.7c1.61,1.16,1.87,3.47,0.74,5.1c-0.5,0.72-1.07,1.5-1.75,2.17c-6.8,6.77-13.69,13.46-20.53,20.19
		c-2.01,1.97-3.91,4.05-5.93,6c-2.47,2.39-4.71,2.61-6.41,0.67c-2.1-2.39-0.72-4.24,1.04-5.98c8-7.91,16-15.83,24.01-23.73
		c1.53-1.51,2.95-3.19,4.69-4.41C271.78,107.77,273.37,107.84,274.56,108.7z"/>
	<path class="st0" d="M275.44,255.17c0.95,1.36,0.95,3.23-0.15,4.48c-0.97,1.1-2.45,1.45-3.86,0.8c-1.16-0.54-2.16-1.52-3.1-2.44
		c-8.51-8.36-16.99-16.74-25.47-25.12c-0.59-0.58-1.21-1.14-1.71-1.79c-1.39-1.81-1.54-3.7,0.2-5.33c1.64-1.53,3.42-1.08,4.9,0.29
		c3.15,2.93,6.22,5.95,9.3,8.97c6.02,5.92,12.06,11.84,18.01,17.82C274.29,253.57,274.91,254.42,275.44,255.17z"/>
	<path class="st0" d="M116.8,109.3c1.2-1.28,3.18-1.44,4.66-0.51c0.51,0.32,0.96,0.64,1.35,1.02c9.12,8.91,18.2,17.86,27.26,26.84
		c1.88,1.86,3.37,4.09,0.91,6.42c-2.44,2.32-4.56,0.67-6.42-1.19c-7.5-7.49-14.98-15-22.47-22.5c-1.75-1.76-3.73-3.35-5.18-5.33
		c-0.73-1-0.91-2.82-0.56-4.04C116.45,109.74,116.6,109.52,116.8,109.3z"/>
	<path class="st0" d="M121.59,259.96c-1.29,0.85-2.99,0.95-4.27,0.08c-1.35-0.92-1.83-2.48-1.15-4.05c0.5-1.16,1.5-2.16,2.43-3.08
		c8.34-8.3,16.7-16.58,25.08-24.85c3.6-3.56,5.58-4.13,7.55-2.26c2.01,1.9,1.51,3.6-2.28,7.41c-8.31,8.33-16.62,16.66-25,24.92
		C123.2,258.86,122.35,259.46,121.59,259.96z"/>
</g>
</svg>
